<svg xmlns="http://www.w3.org/2000/svg" width="72.397" height="60.368" viewBox="0 0 72.397 60.368">
  <path id="V" d="M542.672,137.626l-3.923,9.344a4.561,4.561,0,0,1-4.451,3.146c-1.738,0-3.025-.951-3.924-2.9l-2.343-5.085-.058-.008c-5.365-.932-10.068-4.843-14.013-8.658-5.32-5.15-13.748-12.8-21.68-14.482l-.194-.042.163-.114a59.977,59.977,0,0,1,20.758-9.24L507.2,97.009a13.057,13.057,0,0,0-3.051-4.227c-1.521-1.418-1.6-2.049-1.6-2.152v-.354c0-.173,0-.527,1.219-.527h19.6c1.141,0,1.141.329,1.141.527v.354a1.349,1.349,0,0,1-.51.8c-.51.475-1.02.916-1.513,1.305a5.174,5.174,0,0,0-1.53,1.988,3.543,3.543,0,0,0,.034,2.973l4.493,10.836.045,0c6.96.669,15.559,5.852,18.973,13.565l9.6-24.517a3.468,3.468,0,0,0-.484-3.622,14.312,14.312,0,0,0-2.386-2.291c-.908-.691-.925-1.037-.925-1.046v-.354c0-.2,0-.527,1.141-.527h11.894c1.141,0,1.141.346,1.141.527v.354c0,.017-.017.57-1.625,1.962a11.337,11.337,0,0,0-3.12,4.348l-13.772,32.832c-.012.029-.147.339-.147.339a34.38,34.38,0,0,0-2.561-4.973c-4.017-6.443-10.336-12.125-16.658-13.758a13.885,13.885,0,0,0-2.533-.446q-1.275-.1-2.548-.1a35.229,35.229,0,0,0-7.566.853,63.679,63.679,0,0,0-16.145,6.389,15.474,15.474,0,0,1,3.563,1.566c1.239.624,2.459,1.3,3.645,2.035a48.126,48.126,0,0,1,6.711,4.962c4.235,3.751,7.726,8.362,12.464,11.488a20.369,20.369,0,0,0,2.563,1.445l.206.086h0a10.444,10.444,0,0,0,4.273.849c3.9,0,8.1-1.773,11.554-3.148Z" transform="translate(-492.085 -89.748)" fill="#030504"/>
</svg>
