<svg xmlns="http://www.w3.org/2000/svg" width="87.381" height="87.382" viewBox="0 0 87.381 87.382">
  <path id="vegan-meal-deliver_icon_sustainability" d="M84.571,27.909A142.228,142.228,0,0,0,87.382,2.56,2.561,2.561,0,0,0,84.822,0,142.228,142.228,0,0,0,59.473,2.811,123.626,123.626,0,0,0,45.445,6.448c-.03.009-.059.019-.088.029q-4.262,1.392-8.131,3.047a77.969,77.969,0,0,0-8.819,4.435,2.585,2.585,0,0,0-.241.145,57.732,57.732,0,0,0-11.412,8.732A33.8,33.8,0,0,0,15.011,68.75L.75,83.012a2.56,2.56,0,1,0,3.62,3.62L18.632,72.371a33.8,33.8,0,0,0,45.915-1.743,57.736,57.736,0,0,0,8.732-11.413,2.583,2.583,0,0,0,.145-.241,77.959,77.959,0,0,0,4.434-8.818q1.657-3.866,3.051-8.141c.008-.024.016-.049.023-.073a123.732,123.732,0,0,0,3.639-14.034ZM60.378,7.851A146.1,146.1,0,0,1,82.187,5.194,146.077,146.077,0,0,1,79.531,27,119.751,119.751,0,0,1,76.592,38.65H52.351L67.243,23.759a2.56,2.56,0,1,0-3.621-3.621L48.731,35.03V10.789A119.758,119.758,0,0,1,60.378,7.851Zm9.285,47.364H35.787L47.231,43.771H74.866a80.209,80.209,0,0,1-5.2,11.445Zm-26.051-42.7V40.149L32.167,51.593V17.719a80.216,80.216,0,0,1,11.445-5.2ZM11.975,46.731a28.486,28.486,0,0,1,8.4-20.275,49.162,49.162,0,0,1,6.672-5.543v35.8l-8.4,8.4a28.455,28.455,0,0,1-6.669-18.385ZM60.926,67.008a28.678,28.678,0,0,1-38.662,1.729l8.4-8.4h35.8a49.173,49.173,0,0,1-5.543,6.673Zm0,0" transform="translate(0 0)" fill="#fff"/>
</svg>
