<svg xmlns="http://www.w3.org/2000/svg" width="43.046" height="43.037" viewBox="0 0 43.046 43.037">
  <g id="vegan-meal-deliver_instagram" transform="translate(0 0)">
    <path id="instagram" d="M21.453,42.309A11.034,11.034,0,1,0,32.487,53.344,11.017,11.017,0,0,0,21.453,42.309Zm0,18.208a7.174,7.174,0,1,1,7.174-7.174,7.187,7.187,0,0,1-7.174,7.174ZM35.512,41.858a2.574,2.574,0,1,1-2.574-2.574A2.568,2.568,0,0,1,35.512,41.858ZM42.82,44.47c-.163-3.448-.951-6.5-3.476-9.018s-5.57-3.3-9.017-3.476c-3.553-.2-14.2-.2-17.756,0-3.438.163-6.492.951-9.017,3.467s-3.3,5.57-3.476,9.018c-.2,3.553-.2,14.2,0,17.757.163,3.448.951,6.5,3.476,9.018s5.57,3.3,9.017,3.476c3.553.2,14.2.2,17.756,0,3.448-.163,6.5-.951,9.017-3.476s3.3-5.57,3.476-9.018C43.021,58.664,43.021,48.023,42.82,44.47ZM38.229,66.03a7.263,7.263,0,0,1-4.091,4.091c-2.833,1.124-9.555.864-12.686.864s-9.862.25-12.686-.864A7.263,7.263,0,0,1,4.676,66.03c-1.124-2.833-.864-9.555-.864-12.686s-.25-9.863.864-12.686a7.263,7.263,0,0,1,4.091-4.091c2.833-1.124,9.555-.864,12.686-.864s9.862-.25,12.686.864a7.263,7.263,0,0,1,4.091,4.091c1.124,2.833.864,9.555.864,12.686S39.353,63.206,38.229,66.03Z" transform="translate(0.075 -31.825)" fill="#294725"/>
  </g>
</svg>
