<svg xmlns="http://www.w3.org/2000/svg" width="83.989" height="83.989" viewBox="0 0 83.989 83.989">
  <path id="vegan-meal-deliver_icon_community" d="M71.682,12.306a41.985,41.985,0,1,0,0,59.376A41.962,41.962,0,0,0,71.682,12.306ZM69.928,65.7a42.085,42.085,0,0,0-6.272-4.644A67.9,67.9,0,0,0,66.189,44.67H78.532A36.3,36.3,0,0,1,69.928,65.7ZM5.457,44.67H17.8a67.9,67.9,0,0,0,2.533,16.383A42.085,42.085,0,0,0,14.061,65.7,36.3,36.3,0,0,1,5.457,44.67Zm8.6-26.379a42.085,42.085,0,0,0,6.272,4.644A67.9,67.9,0,0,0,17.8,39.318H5.457A36.3,36.3,0,0,1,14.062,18.291Zm25.258,5.2a36.35,36.35,0,0,1-12.471-3.16C29.116,14.487,33.3,7.481,39.319,5.745Zm0,5.361V39.319H23.154a63.039,63.039,0,0,1,2.029-13.872A41.7,41.7,0,0,0,39.319,28.849Zm0,15.82V55.139a41.7,41.7,0,0,0-14.136,3.4A63.039,63.039,0,0,1,23.154,44.67Zm0,15.83V78.243C33.3,76.507,29.117,69.5,26.848,63.66A36.35,36.35,0,0,1,39.319,60.5Zm5.351,0a36.349,36.349,0,0,1,12.471,3.16C54.873,69.5,50.691,76.507,44.67,78.243Zm0-5.361V44.67H60.835a63.039,63.039,0,0,1-2.029,13.872,41.7,41.7,0,0,0-14.136-3.4Zm0-15.82V28.849a41.7,41.7,0,0,0,14.136-3.4,63.039,63.039,0,0,1,2.029,13.872Zm0-15.83V5.745c6.021,1.736,10.2,8.742,12.471,14.584A36.353,36.353,0,0,1,44.67,23.488ZM56.688,8.416a36.473,36.473,0,0,1,9.484,6.057,36.774,36.774,0,0,1-4.3,3.267A40.282,40.282,0,0,0,56.688,8.416ZM22.121,17.739a36.788,36.788,0,0,1-4.3-3.267A36.473,36.473,0,0,1,27.3,8.416a40.3,40.3,0,0,0-5.18,9.323Zm0,48.51a40.285,40.285,0,0,0,5.18,9.323,36.473,36.473,0,0,1-9.484-6.057A36.773,36.773,0,0,1,22.121,66.249Zm39.747,0a36.789,36.789,0,0,1,4.3,3.267,36.473,36.473,0,0,1-9.484,6.057,40.28,40.28,0,0,0,5.18-9.323Zm4.321-26.93a67.9,67.9,0,0,0-2.533-16.383,42.093,42.093,0,0,0,6.272-4.644,36.3,36.3,0,0,1,8.6,21.027Z" transform="translate(0 0.001)" fill="#fff"/>
</svg>
