<svg id="vegan-meal-deliver_pinterest" xmlns="http://www.w3.org/2000/svg" width="47.631" height="47.632" viewBox="0 0 47.631 47.632">
  <path id="pinterest" d="M47.631,31.816a23.819,23.819,0,0,1-30.864,22.75,26.772,26.772,0,0,0,2.958-6.242c.288-1.114,1.479-5.666,1.479-5.666.778,1.479,3.044,2.737,5.455,2.737,7.183,0,12.359-6.607,12.359-14.818,0-7.865-6.424-13.752-14.683-13.752-10.275,0-15.739,6.9-15.739,14.415,0,3.5,1.863,7.846,4.83,9.229.451.211.691.115.8-.317.077-.327.48-1.949.663-2.7a.713.713,0,0,0-.163-.682,9.379,9.379,0,0,1-1.757-5.435A10.306,10.306,0,0,1,23.72,21c5.848,0,9.949,3.985,9.949,9.69,0,6.444-3.255,10.909-7.49,10.909a3.454,3.454,0,0,1-3.524-4.3c.672-2.833,1.969-5.887,1.969-7.932,0-1.825-.98-3.352-3.015-3.352-2.391,0-4.312,2.468-4.312,5.781a8.582,8.582,0,0,0,.711,3.534S15.653,45.3,15.221,47.162A23.054,23.054,0,0,0,15.135,54a23.819,23.819,0,1,1,32.5-22.184Z" transform="translate(0 -8)" fill="#294725"/>
</svg>
