<svg id="vegan-meal-deliver_vegano-logo-v-updated" xmlns="http://www.w3.org/2000/svg" width="77.187" height="60.664" viewBox="0 0 77.187 60.664">
  <path id="Path_3158" data-name="Path 3158" d="M47.914,43.132c-.118-.118-2.833.118-3.3,0a11.647,11.647,0,0,1-3.187-1.18C33.279,37.7,29.03,28.5,22.067,22.6a6.547,6.547,0,0,0-.944-.708A10.389,10.389,0,0,0,17.818,20H17.7l.708.118,1.534.118a15.456,15.456,0,0,1,3.187.708c6.019,2.36,10.5,7.789,14.989,12.628a58.892,58.892,0,0,0,7.671,7.671,16.194,16.194,0,0,1,2.124,1.888" transform="translate(3.19 3.605)"/>
  <path id="Path_3159" data-name="Path 3159" d="M58.3,0V3.423h1.416a3.6,3.6,0,0,1,3.3,5.193c-3.423,7.671-8.5,18.766-9.442,21.008-.236-.354-.59-1.18-.944-1.652h0a37.426,37.426,0,0,0-2.833-3.659,27.177,27.177,0,0,0-12.628-7.789c-.354-.118-.826-.236-1.18-.354L31.866,6.845A2.538,2.538,0,0,1,34.227,3.3V0H12.156V3.423A5.313,5.313,0,0,1,17,6.609c1.652,3.777,3.541,8.026,3.541,8.026a53.248,53.248,0,0,0-10.5,2.006c-1.416.354-2.833.826-4.249,1.3-1.3.472-1.77.708-4.6,1.77L0,20.182l1.3.354c8.616,2.715,13.573,12.746,18.175,19.71C23.6,46.5,29.506,53.582,37.649,53.936L40.6,60.664h5.075l4.839-10.976-1.3.59a13.844,13.844,0,0,0-1.3.59C43.9,52.4,37.767,51.93,33.991,50.042c-3.423-1.77-5.783-5.075-7.789-8.262A77.907,77.907,0,0,0,8.97,21.244c-.59-.472-.59-.472-1.062-.826,1.18-.354,4.485-1.18,5.429-1.416,1.888-.354,3.659-.59,5.547-.826a53.282,53.282,0,0,1,10.622-.236C41.308,19,49.452,27.263,52.874,38.121a12.347,12.347,0,0,1,.472,2.006v.118h0a13.005,13.005,0,0,1,.236,2.124c.472-1.062.826-2.124,1.3-3.187L69.043,7.789a7.345,7.345,0,0,1,6.727-4.367h1.416V0Z"/>
</svg>
