<svg xmlns="http://www.w3.org/2000/svg" width="85.694" height="85.694" viewBox="0 0 85.694 85.694">
  <g id="vegan-meal-deliver_icon_chefs" transform="translate(13.739 13.739)">
    <g id="Group_3027" data-name="Group 3027" transform="translate(1.147 56.724)">
      <g id="Group_3026" data-name="Group 3026" transform="translate(0 0)">
        <g id="Rectangle_2169" data-name="Rectangle 2169" fill="none" stroke="#fff" stroke-linecap="round" stroke-linejoin="round" stroke-width="5">
          <rect width="55.922" height="15.231" stroke="none"/>
          <rect x="2.5" y="2.5" width="50.922" height="10.231" fill="none"/>
        </g>
      </g>
    </g>
    <g id="Group_3029" data-name="Group 3029" transform="translate(-13.739 -13.739)">
      <g id="Group_3028" data-name="Group 3028" transform="translate(0)">
        <g id="Path_14" data-name="Path 14" transform="translate(0 0)" fill="none" stroke-linecap="round" stroke-linejoin="round">
          <path d="M68.3,8.2a17.241,17.241,0,0,0-9.314,2.7,17.4,17.4,0,0,0-32.272,0A17.241,17.241,0,0,0,17.4,8.2a17.4,17.4,0,0,0-2.511,34.613V65.442H70.808V42.811A17.4,17.4,0,0,0,68.3,8.2Z" stroke="none"/>
          <path d="M 42.84701156616211 5.000003814697266 C 39.84585952758789 5.000003814697266 36.95065689086914 6.086341857910156 34.6948127746582 8.058834075927734 C 33.23093414306641 9.338897705078125 32.07356643676758 10.96637344360352 31.34781265258789 12.76531219482422 C 30.79171752929688 14.14372634887695 29.65119552612305 15.20328140258789 28.23562622070313 15.65652847290039 C 27.73727416992188 15.81609344482422 27.22306823730469 15.89468383789063 26.7111930847168 15.89468383789063 C 25.76908874511719 15.89468383789063 24.83498764038086 15.62841033935547 24.02291870117188 15.11064910888672 C 22.06019592285156 13.8592643737793 19.76895141601563 13.19781875610352 17.39679718017578 13.19781875610352 C 17.39679718017578 13.19781875610352 17.39679718017578 13.19781875610352 17.39658355712891 13.19781875610352 C 10.56107330322266 13.19781875610352 4.999992370605469 18.75895690917969 4.999992370605469 25.59452819824219 C 4.999992370605469 28.58552932739258 6.085639953613281 31.47621917724609 8.056938171386719 33.73411178588867 C 10.01222991943359 35.97366333007813 12.6927490234375 37.43988037109375 15.604736328125 37.86266326904297 C 18.06287384033203 38.21955871582031 19.88632202148438 40.32686614990234 19.88632202148438 42.810791015625 L 19.88632202148438 60.4420051574707 L 65.80753326416016 60.4420051574707 L 65.80753326416016 42.810791015625 C 65.80753326416016 40.32686614990234 67.63099670410156 38.21955871582031 70.08913421630859 37.86266326904297 C 73.00119781494141 37.43988037109375 75.68177795410156 35.97366333007813 77.63706970214844 33.73409652709961 C 79.60838317871094 31.47621917724609 80.69403076171875 28.58552932739258 80.69403076171875 25.59452819824219 C 80.69403076171875 18.75886535644531 75.1328125 13.19765090942383 68.29713439941406 13.19765090942383 C 65.92508697509766 13.19765090942383 63.63384246826172 13.85909652709961 61.67108917236328 15.11049652099609 C 60.85898971557617 15.62826919555664 59.92496490478516 15.8945198059082 58.98283386230469 15.8945198059082 C 58.470947265625 15.8945198059082 57.95661926269531 15.81589889526367 57.45825958251953 15.65631103515625 C 56.04265594482422 15.2030029296875 54.90213394165039 14.14337539672852 54.34610366821289 12.7648811340332 C 53.62054824829102 10.96611404418945 52.46327209472656 9.338790893554688 50.99939727783203 8.058834075927734 C 48.7433967590332 6.086311340332031 45.84816360473633 5.000003814697266 42.84701156616211 5.000003814697266 M 42.84701156616211 7.62939453125e-06 C 47.05907440185547 7.62939453125e-06 51.12302780151367 1.525249481201172 54.29051971435547 4.294727325439453 C 56.36725616455078 6.110542297363281 57.96799468994141 8.377910614013672 58.98308563232422 10.89449691772461 C 61.73919677734375 9.137279510498047 64.93950653076172 8.197650909423828 68.29713439941406 8.197650909423828 C 77.88983917236328 8.197650909423828 85.69403076171875 16.0018196105957 85.69403076171875 25.59452819824219 C 85.69403076171875 34.33478927612305 79.21492004394531 41.59015655517578 70.80753326416016 42.810791015625 L 70.80753326416016 65.44200134277344 L 14.88632202148438 65.44200134277344 L 14.88632202148438 42.810791015625 C 6.479103088378906 41.59015655517578 -7.62939453125e-06 34.33478927612305 -7.62939453125e-06 25.59452819824219 C -7.62939453125e-06 16.0018196105957 7.804183959960938 8.197650909423828 17.39688873291016 8.197818756103516 C 20.7545166015625 8.197818756103516 23.95482635498047 9.137435913085938 26.71093368530273 10.8946647644043 C 27.7261962890625 8.378082275390625 29.32693481445313 6.110713958740234 31.40350341796875 4.294895172119141 C 34.57101058959961 1.525249481201172 38.63494873046875 7.62939453125e-06 42.84701156616211 7.62939453125e-06 Z" stroke="none" fill="#fff"/>
        </g>
      </g>
    </g>
  </g>
</svg>
