<svg id="vegan-meal-deliver_icon_how-we-work-2" xmlns="http://www.w3.org/2000/svg" width="70.861" height="36.109" viewBox="0 0 70.861 36.109">
  <g id="Group_3126" data-name="Group 3126">
    <g id="Group_3122" data-name="Group 3122" transform="translate(18.059)">
      <path id="Path_3110" data-name="Path 3110" d="M818.577,1495.562h-.584q-9.645,0-19.291-.01c-.465,0-.675.1-.8.589a5.108,5.108,0,0,1-9.886-.125c-.035-.14-.085-.276-.14-.453-1.639,0-3.288,0-4.937,0-1.246,0-1.664-.42-1.664-1.684q0-14.2,0-28.409c0-1.241.442-1.673,1.691-1.673h32.193c1.267,0,1.725.457,1.73,1.718,0,1.193,0,2.385,0,3.657h.8c2.316.007,4.633-.044,6.947.034a9.312,9.312,0,0,1,8.823,6.918,15.4,15.4,0,0,1,.612,4.4q-.01,6.731,0,13.461c0,1.124-.452,1.572-1.582,1.578-1.075.006-2.151.009-3.226,0-.3,0-.49.038-.566.394a5.187,5.187,0,0,1-5.065,3.952,5.241,5.241,0,0,1-4.958-4.107A1.635,1.635,0,0,0,818.577,1495.562Zm-3.872-2.631v-27.274H783.28v27.274l4.783.085a5.112,5.112,0,0,1,4.862-3.455,5.041,5.041,0,0,1,4.967,3.406Zm2.286-21.274v21.336a12.179,12.179,0,0,0,1.463-.018.815.815,0,0,0,.565-.39,4.833,4.833,0,0,1,1.86-2.188,5.133,5.133,0,0,1,7.5,2.174c.078.162.245.394.378.4.923.035,1.848.019,2.8.019.015-.206.034-.347.034-.488,0-4.074.034-8.147-.025-12.22a14.149,14.149,0,0,0-.492-3.356,6.6,6.6,0,0,0-6.37-5.21c-1.732-.089-3.472-.044-5.208-.056C818.667,1471.653,817.844,1471.657,816.991,1471.657Zm4.078,23.047a2.64,2.64,0,1,0,2.622-2.652A2.647,2.647,0,0,0,821.069,1494.7Zm-28.018-2.651a2.634,2.634,0,1,0,0,5.268,2.78,2.78,0,0,0,2.647-2.682A2.67,2.67,0,0,0,793.051,1492.053Z" transform="translate(-781.272 -1463.795)"/>
    </g>
    <g id="Group_3123" data-name="Group 3123" transform="translate(0 7.424)">
      <path id="Path_3111" data-name="Path 3111" d="M752.956,1480.9c-1.858,0-3.717,0-5.574-.006a2.535,2.535,0,0,1-.847-.126,1.112,1.112,0,0,1-.773-1.262,1.206,1.206,0,0,1,.976-1.067,1.8,1.8,0,0,1,.491-.043c3.841,0,7.681-.008,11.522.01a1.922,1.922,0,0,1,.987.265,1.087,1.087,0,0,1,.478,1.3,1.239,1.239,0,0,1-1.253.922c-.887.026-1.775.01-2.663.011Z" transform="translate(-745.753 -1478.395)"/>
    </g>
    <g id="Group_3124" data-name="Group 3124" transform="translate(1.888 14.619)">
      <path id="Path_3112" data-name="Path 3112" d="M755.776,1495.054c-1.653,0-3.307.017-4.96-.007a1.219,1.219,0,0,1-1.177-1.822,1.353,1.353,0,0,1,1.247-.674c3.265,0,6.53-.009,9.8,0a1.336,1.336,0,0,1,1.414,1.265,1.3,1.3,0,0,1-1.423,1.23C759.042,1495.063,757.409,1495.054,755.776,1495.054Z" transform="translate(-749.465 -1492.548)"/>
    </g>
    <g id="Group_3125" data-name="Group 3125" transform="translate(3.595 21.747)">
      <path id="Path_3113" data-name="Path 3113" d="M758.142,1509.1c-1.3,0-2.6,0-3.9,0-.894,0-1.4-.429-1.414-1.195a1.276,1.276,0,0,1,1.341-1.318c.97-.036,1.941-.012,2.912-.013q2.479,0,4.958,0a1.511,1.511,0,0,1,1.374.548,1.175,1.175,0,0,1-.691,1.887,11.3,11.3,0,0,1-1.849.089C759.96,1509.11,759.051,1509.1,758.142,1509.1Z" transform="translate(-752.823 -1506.567)"/>
    </g>
  </g>
  <g id="Group_3127" data-name="Group 3127" transform="translate(25.548 8.183)">
    <path id="Path_3114" data-name="Path 3114" d="M814.11,1497.518c-.035-.035-.729.024-.844,0a2.815,2.815,0,0,1-.8-.289c-2.078-1.071-3.177-3.415-4.931-4.91-.073-.063-.154-.129-.234-.189a2.782,2.782,0,0,0-.847-.491h0l-.027-.011.167.018.4.038a3.045,3.045,0,0,1,.8.181c1.535.587,2.668,1.975,3.8,3.216a16.5,16.5,0,0,0,1.942,1.957,5.442,5.442,0,0,1,.576.478" transform="translate(-801.126 -1485.661)" fill="#231f20"/>
    <path id="Path_3115" data-name="Path 3115" d="M810.806,1479.889v.855h.35a.93.93,0,0,1,.847,1.313l-2.407,5.328a3.939,3.939,0,0,0-.241-.428l0,0a8.722,8.722,0,0,0-.728-.927,6.8,6.8,0,0,0-3.22-1.98c-.1-.03-.21-.05-.314-.076l-1.012-2.337a.637.637,0,0,1,.584-.89v-.855h-5.578v.855a1.354,1.354,0,0,1,1.241.811l.9,2.043a13.315,13.315,0,0,0-2.653.5c-.365.1-.73.2-1.088.325-.315.106-.46.172-1.159.455l-.32.144.336.1c2.2.677,3.432,3.224,4.62,5,1.063,1.586,2.558,3.4,4.628,3.466l.75,1.712h1.3l1.228-2.8-.322.155c-.111.053-.227.1-.342.139a4.912,4.912,0,0,1-3.544-.221,5.456,5.456,0,0,1-1.985-2.109,19.717,19.717,0,0,0-4.4-5.178,2.625,2.625,0,0,0-.277-.218c.313-.09,1.126-.306,1.374-.347.466-.077.933-.149,1.4-.2a13.008,13.008,0,0,1,2.7-.067,6.866,6.866,0,0,1,5.924,5.124,4.523,4.523,0,0,1,.119.507c0,.007,0,.016,0,.022h0a4.159,4.159,0,0,1,.057.535c.106-.273.215-.535.338-.8l3.6-7.984a1.885,1.885,0,0,1,1.718-1.11h.372v-.855Z" transform="translate(-796 -1479.889)" fill="#231f20"/>
  </g>
</svg>
