<svg xmlns="http://www.w3.org/2000/svg" xmlns:xlink="http://www.w3.org/1999/xlink" width="130" height="130" viewBox="0 0 130 130">
  <defs>
    <filter id="Ellipse_72" x="0" y="0" width="130" height="130" filterUnits="userSpaceOnUse">
      <feOffset dy="3" input="SourceAlpha"/>
      <feGaussianBlur stdDeviation="5" result="blur"/>
      <feFlood flood-opacity="0.302"/>
      <feComposite operator="in" in2="blur"/>
      <feComposite in="SourceGraphic"/>
    </filter>
  </defs>
  <g id="vegan-meal-deliver_icon_add-to-box" transform="translate(15 12)">
    <g transform="matrix(1, 0, 0, 1, -15, -12)" filter="url(#Ellipse_72)">
      <circle id="Ellipse_72-2" data-name="Ellipse 72" cx="50" cy="50" r="50" transform="translate(15 12)" fill="#294725"/>
    </g>
    <path id="box-open-solid" d="M28.886,47.186a3.294,3.294,0,0,1-2.813-1.59L21.7,38.353,17.341,45.6a3.3,3.3,0,0,1-2.82,1.6,3.125,3.125,0,0,1-.9-.129L4.309,44.4V56.494A2.167,2.167,0,0,0,5.953,58.6l14.69,3.676a4.417,4.417,0,0,0,2.106,0l14.7-3.676A2.179,2.179,0,0,0,39.1,56.494V44.4l-9.309,2.657A3.125,3.125,0,0,1,28.886,47.186Zm14.446-7.624-3.5-6.985a1.11,1.11,0,0,0-1.135-.6L21.7,34.14l6.231,10.335a1.117,1.117,0,0,0,1.257.5l13.447-3.839a1.119,1.119,0,0,0,.693-1.57ZM3.575,32.577l-3.5,6.985a1.108,1.108,0,0,0,.686,1.563l13.447,3.839a1.117,1.117,0,0,0,1.257-.5L21.7,34.14l-17-2.168a1.11,1.11,0,0,0-1.128.6Z" transform="translate(28.042 2.607)" fill="#fff"/>
  </g>
</svg>
