<svg xmlns="http://www.w3.org/2000/svg" width="308.092" height="41.83" viewBox="0 0 308.092 41.83">
  <g id="vegan-meal-deliver_vegano-logo" transform="translate(-576.13 -59.98)">
    <path id="Path_3095" data-name="Path 3095" d="M584.519,60.607l9.46,28.68a.008.008,0,0,0,.014,0l9.46-28.68.006,0h8.375l.009.01-13.3,39.959-.006,0h-9.1l-.007,0-13.3-39.959.009-.01h8.373l.007,0" transform="translate(0 0.275)" fill="#231f20"/>
    <path id="Path_3096" data-name="Path 3096" d="M636.731,60.612v7.356l-.007.007H621.816l-.007.007v8.675l.007.009h13.228l.007.006v7.359l-.007.006H621.816l-.007.009v9.094l.007.007h15.446a.008.008,0,0,1,.009.009v7.415l-.009.009H613.847l-.009-.009V60.612l.009-.009h22.877l.007.009" transform="translate(16.646 0.275)" fill="#231f20"/>
    <path id="Path_3097" data-name="Path 3097" d="M663.786,78.5h19.221l.009.007v3.769q0,9.408-5.813,14.8a17.972,17.972,0,0,1-12.824,4.735,21.28,21.28,0,0,1-10.848-2.877,20.444,20.444,0,0,1-10.547-18.039A20.636,20.636,0,0,1,653.53,62.8a21.3,21.3,0,0,1,10.788-2.817,19.485,19.485,0,0,1,8.21,1.676,29.881,29.881,0,0,1,7.846,5.688v.012l-5.623,5.322h-.01a22.088,22.088,0,0,0-5.24-4.127,11.447,11.447,0,0,0-5.242-1.139,12.547,12.547,0,0,0-9.888,4.375,13.366,13.366,0,0,0-3.3,9.108,13.168,13.168,0,0,0,13.3,13.425,10.086,10.086,0,0,0,7.909-3.357,10.634,10.634,0,0,0,2.4-5.082l-.007-.01h-10.89l-.007-.007V78.5l.007-.007" transform="translate(29.511 0)" fill="#231f20"/>
    <path id="Path_3098" data-name="Path 3098" d="M707.054,83.843l-5.261-14.711a.008.008,0,0,0-.016,0l-5.263,14.711.007.012h10.527l.006-.012m2.636,7.445H693.94l-.007,0-3.353,9.28-.007.006H682.2l-.007-.01,14.917-39.959.006,0h9.4l.006,0,14.919,39.959a.008.008,0,0,1-.009.01H713l-.006-.006-3.292-9.28-.007,0" transform="translate(46.819 0.275)" fill="#231f20"/>
    <path id="Path_3099" data-name="Path 3099" d="M722.351,100.568V60.61l.006-.007h6.762l.006,0L748.7,86.595s.014,0,.014,0V60.61l.006-.007h8.017l.007.007v39.958l-.007.009h-6.76l-.006,0L730.335,74.586c-.006-.007-.013,0-.013,0v25.979l-.009.009h-7.957l-.006-.009" transform="translate(64.547 0.275)" fill="#231f20"/>
    <path id="Path_3100" data-name="Path 3100" d="M768.69,80.894a13.049,13.049,0,0,0,4.316,9.949,12.662,12.662,0,0,0,18.338-.959,13.655,13.655,0,0,0-.9-19,12.8,12.8,0,0,0-18.458.957,13.449,13.449,0,0,0-3.3,9.049m-8.089.061a21.094,21.094,0,1,1,42.083,2.138,19.377,19.377,0,0,1-1.982,6.853,21.443,21.443,0,0,1-9.851,9.776,19.8,19.8,0,0,1-6.939,1.982,20.851,20.851,0,0,1-12.823-2.769,21.86,21.86,0,0,1-7.612-7.553A20.09,20.09,0,0,1,760.6,80.954" transform="translate(81.431 0)" fill="#231f20"/>
  </g>
</svg>
