<svg id="vegan-meal-deliver_icon_vegano" xmlns="http://www.w3.org/2000/svg" width="100.209" height="83.562" viewBox="0 0 100.209 83.562">
  <path id="Path_71" data-name="Path 71" d="M652.181-77.543H635.719c-1.582,0-1.582.455-1.582.73v.492c0,.012.025.489,1.281,1.448a19.767,19.767,0,0,1,3.3,3.17,4.8,4.8,0,0,1,.669,5.012L626.1-32.756c-4.726-10.676-16.628-17.851-26.262-18.777h-.062l-6.217-15a4.9,4.9,0,0,1-.049-4.116,7.192,7.192,0,0,1,2.117-2.752c.683-.538,1.388-1.147,2.094-1.805a1.873,1.873,0,0,0,.706-1.113v-.492c0-.275,0-.73-1.579-.73H569.724c-1.688,0-1.688.492-1.688.73v.492c0,.143.108,1.016,2.214,2.978a18.04,18.04,0,0,1,4.223,5.85l8.037,17.406A83.024,83.024,0,0,0,553.778-37.3l-.224.157.268.058c10.98,2.33,22.644,12.917,30.009,20.044,5.46,5.28,11.968,10.694,19.4,11.985l.081.009L606.549,2c1.244,2.7,3.027,4.019,5.432,4.019,2.884,0,4.906-1.424,6.162-4.354l5.43-12.934.159-.372c-4.786,1.9-10.6,4.359-15.993,4.357a14.439,14.439,0,0,1-5.915-1.175h0l-.286-.12a28.005,28.005,0,0,1-3.546-2c-6.559-4.327-11.389-10.71-17.251-15.9a66.607,66.607,0,0,0-9.29-6.868c-1.641-1.018-3.331-1.953-5.045-2.817a21.419,21.419,0,0,0-4.931-2.166c7.63-4.084,15.027-7.24,22.346-8.845a48.831,48.831,0,0,1,10.472-1.182q1.763,0,3.528.145a19.208,19.208,0,0,1,3.507.616c8.75,2.26,17.5,10.126,23.055,19.042a47.6,47.6,0,0,1,3.544,6.885s.189-.429.206-.471l19.061-45.443a15.7,15.7,0,0,1,4.32-6.019c2.226-1.925,2.249-2.692,2.249-2.715v-.492C653.76-77.063,653.76-77.543,652.181-77.543Z" transform="translate(-553.554 77.543)"/>
  <path id="Path_72" data-name="Path 72" d="M606.712-42.074c-.4-.205-.81-.4-1.226-.591l-.8-.379a59.078,59.078,0,0,1-8.579-5.423l-.457-.326c-.229-.15-.45-.309-.674-.469L587.811-54.3a43.162,43.162,0,0,0-7.727-4.063,21.334,21.334,0,0,0-4.32-1.263,13.345,13.345,0,0,0-2.283-.208c-.266,0-.522,0-.743.014a14.663,14.663,0,0,0-3.094.455l-3.472.949,3.475.944a12.889,12.889,0,0,1,1.436.519l.4.159c.621.254,1.247.519,1.847.82l.579.3c.822.432,1.711.963,2.715,1.625,2.459,1.621,4.779,3.431,6.958,5.155l.582.453q1.229.977,2.463,1.912c1.861,1.434,3.433,2.542,4.95,3.488a32.488,32.488,0,0,0,5.46,2.791c.224.09.443.171.654.24a20.654,20.654,0,0,0,2.752.815,9.731,9.731,0,0,0,2.073.229,9.334,9.334,0,0,0,1.217-.081c.81-.085,1.621-.247,2.586-.446.358-.072.716-.148,1.064-.235l2.154-.533L607.692-41.5C607.382-41.7,607.061-41.88,606.712-42.074Z" transform="translate(-537.041 100.721)"/>
</svg>
