<svg id="vegan-meal-deliver_icon_how-we-work-1" xmlns="http://www.w3.org/2000/svg" width="35.963" height="47.945" viewBox="0 0 35.963 47.945">
  <path id="Path_3102" data-name="Path 3102" d="M212.751,1453.12c1.856,0,3.689,0,5.521,0,.874,0,1.753-.036,2.619.052a2.822,2.822,0,0,1,2.63,2.853c0,.085,0,.169,0,.254q0,19.722,0,39.445a3.027,3.027,0,0,1-1.137,2.522,3.207,3.207,0,0,1-2.106.613q-7.151,0-14.3,0-7.6,0-15.19,0a3.05,3.05,0,0,1-2.583-1.095,2.768,2.768,0,0,1-.637-1.711c0-.113,0-.225,0-.339q0-19.723-.006-39.445a2.846,2.846,0,0,1,1.636-2.817,3.8,3.8,0,0,1,1.55-.322c2.4-.033,4.8-.022,7.193-.007.329,0,.478-.095.542-.415.071-.358.186-.709.291-1.06a.832.832,0,0,1,.977-.732c.931-.005,1.862,0,2.792,0h8.632c.8,0,.965.124,1.185.906q.16.57.324,1.139A1.686,1.686,0,0,0,212.751,1453.12Zm-20.089,40.631h25.744v-35.495h-4.159c-.014.053-.032.083-.026.106.12.463.242.926.368,1.388.242.895-.047,1.272-.983,1.272H197.489c-.957,0-1.24-.378-.985-1.3.132-.479.26-.96.393-1.456h-4.235Zm5.274-39.106h-.488q-3.364,0-6.727,0a1.426,1.426,0,0,0-1.626,1.637q0,19.721,0,39.443a1.4,1.4,0,0,0,1.607,1.606q14.851,0,29.7,0a1.428,1.428,0,0,0,1.608-1.624q0-19.722,0-39.444a1.45,1.45,0,0,0-1.62-1.618q-3.406,0-6.812,0h-.425c.145.512.31.978.4,1.459s.29.626.787.612c1.494-.041,2.99-.016,4.485-.015.913,0,1.14.233,1.14,1.161q0,18.135,0,36.27c0,.927-.216,1.143-1.142,1.143H192.256c-.113,0-.226,0-.338,0a.736.736,0,0,1-.768-.638,2.819,2.819,0,0,1-.024-.506q0-18.135,0-36.269c0-.951.21-1.157,1.178-1.158,1.551,0,3.1.005,4.654-.009.148,0,.39-.089.427-.193C197.587,1455.919,197.742,1455.319,197.937,1454.646Zm14.949,4.818a1.665,1.665,0,0,0-.027-.239c-.605-2.173-1.219-4.345-1.813-6.521-.074-.273-.236-.261-.438-.261l-10.154,0c-.11,0-.22.013-.339.021l-1.952,7Z" transform="translate(-187.564 -1450.918)"/>
  <path id="Path_3103" data-name="Path 3103" d="M213.712,1480.8q-4.44,0-8.879,0a2.138,2.138,0,0,1-.581-.069.65.65,0,0,1-.471-.678.636.636,0,0,1,.462-.682,3.365,3.365,0,0,1,.831-.088q8.815-.012,17.631-.012c.347,0,.72.05.856.413a1.125,1.125,0,0,1-.012.751c-.137.343-.493.369-.83.369q-3.108,0-6.215,0Z" transform="translate(-195.746 -1465.222)"/>
  <path id="Path_3104" data-name="Path 3104" d="M213.748,1503.852c2.988,0,5.976-.007,8.964.011a1.248,1.248,0,0,1,.8.271.732.732,0,0,1-.5,1.226,4.2,4.2,0,0,1-.675.015q-8.731,0-17.463,0a1.165,1.165,0,0,1-.649-.115.936.936,0,0,1-.4-.621,1.07,1.07,0,0,1,.391-.67,1.013,1.013,0,0,1,.6-.112Q209.287,1503.847,213.748,1503.852Z" transform="translate(-195.772 -1477.625)"/>
  <path id="Path_3105" data-name="Path 3105" d="M213.742,1528.413h8.878q1.107,0,1.088.766c-.011.509-.377.756-1.11.756q-8.9,0-17.8,0a.952.952,0,0,1-.564-.111,1,1,0,0,1-.4-.619,1.026,1.026,0,0,1,.386-.671,1.11,1.11,0,0,1,.646-.112Q209.3,1528.408,213.742,1528.413Z" transform="translate(-195.772 -1490.019)"/>
  <path id="Path_3106" data-name="Path 3106" d="M227.142,1493.083c-1.535,0-3.071.018-4.6-.017a1.092,1.092,0,0,1-.765-.384.823.823,0,0,1,.024-.76.972.972,0,0,1,.7-.351c3.112-.023,6.224-.018,9.337-.013a.79.79,0,0,1,.881.769c0,.457-.334.752-.887.754C230.268,1493.087,228.705,1493.083,227.142,1493.083Z" transform="translate(-204.783 -1471.422)"/>
  <path id="Path_3107" data-name="Path 3107" d="M227.144,1516.137q2.323,0,4.647,0c.327,0,.657.075.758.413a.944.944,0,0,1-.046.736,1.083,1.083,0,0,1-.746.364c-3.1.024-6.2.018-9.293.013a.813.813,0,0,1-.892-.767c-.005-.469.337-.757.925-.759C224.046,1516.134,225.595,1516.136,227.144,1516.137Z" transform="translate(-204.723 -1483.824)"/>
  <path id="Path_3108" data-name="Path 3108" d="M206.358,1515.806c1.113-1.126,2.181-2.207,3.253-3.285a1.262,1.262,0,0,1,.36-.285.751.751,0,0,1,.984,1.017,1.55,1.55,0,0,1-.283.364q-1.807,1.807-3.62,3.607c-.527.522-.869.518-1.4,0s-1.039-1.031-1.556-1.55c-.407-.409-.457-.86-.139-1.187.334-.346.8-.308,1.225.116C205.564,1514.976,205.93,1515.366,206.358,1515.806Z" transform="translate(-195.732 -1481.819)"/>
  <path id="Path_3109" data-name="Path 3109" d="M206.371,1491.271l3.134-3.182a2.87,2.87,0,0,1,.274-.263.781.781,0,0,1,1.043.033.743.743,0,0,1,.019,1.035c-.209.247-.451.465-.68.695q-1.584,1.588-3.168,3.173a.786.786,0,0,1-1.279-.006q-.825-.82-1.641-1.649a.79.79,0,0,1-.117-1.159.8.8,0,0,1,1.2.089C205.546,1490.42,205.924,1490.817,206.371,1491.271Z" transform="translate(-195.732 -1469.448)"/>
</svg>
